# xmcd CD database file
#
# Track frame offsets:
#	150
#	22305
#	40225
#	70230
#	97642
#	113660
#	136157
#	155560
#	178352
#	211335
#	233617
#
# Disc length: 3343 seconds
#
# Revision: 0
# Processed by: cddbd v1.5PL3 Copyright (c) Steve Scherf et al.
# Submitted via: CDex 1.51
#
DISCID=900d0d0b
DTITLE=The Leo Cavanagh Trio - Bookin' @ The Library
DYEAR=2001
DGENRE=Jazz
TTITLE0=Fascinating Rhythm
TTITLE1=Obsesion
TTITLE2=Jive at Five
TTITLE3=Skylark
TTITLE4=Gee Baby, Ain't I good to You?
TTITLE5=I'm Beginning to See the Light
TTITLE6=Pennies from Heaven
TTITLE7=Delta Wind
TTITLE8=Solano Mama
TTITLE9=Petite Fleur
TTITLE10=C Jam Blues
EXTD=YEAR: 2001
EXTT0=
EXTT1=
EXTT2=
EXTT3=
EXTT4=
EXTT5=
EXTT6=
EXTT7=
EXTT8=
EXTT9=
EXTT10=
PLAYORDER=
